<?xml version="1.0" encoding="UTF-8"?>
<svg xmlns="http://www.w3.org/2000/svg" xmlns:xlink="http://www.w3.org/1999/xlink" width="250pt" height="250pt" viewBox="0 0 250 250" version="1.1">
<g id="surface1">
<path style=" stroke:none;fill-rule:nonzero;fill:rgb(13.333333%,13.333333%,13.333333%);fill-opacity:1;" d="M 0 0 L 249.972656 0 L 249.972656 249.972656 L 0 249.972656 Z M 0 0 "/>
<path style=" stroke:none;fill-rule:nonzero;fill:rgb(0%,84.705882%,100%);fill-opacity:1;" d="M 145.695312 124.832031 C 145.695312 136.378906 136.335938 145.738281 124.792969 145.738281 C 113.246094 145.738281 103.890625 136.378906 103.890625 124.832031 C 103.890625 113.289062 113.246094 103.929688 124.792969 103.929688 C 136.335938 103.929688 145.695312 113.289062 145.695312 124.832031 Z M 145.695312 124.832031 "/>
<path style="fill:none;stroke-width:144.7456;stroke-linecap:butt;stroke-linejoin:miter;stroke:rgb(0%,84.705882%,100%);stroke-opacity:1;stroke-miterlimit:10;" d="M 1806.499258 1191.892552 C 2212.731163 1191.892552 2590.067675 1250.192259 2874.610958 1348.131243 C 3217.397402 1466.087779 3428.203713 1645.001719 3428.203713 1807.008179 C 3428.203713 1975.80025 3204.787475 2165.910448 2836.724631 2287.825257 C 2558.401491 2379.996471 2192.091597 2428.174309 1806.499258 2428.174309 C 1411.067784 2428.174309 1036.784797 2382.99345 755.295038 2286.807415 C 399.16356 2165.118793 184.68171 1972.577085 184.68171 1807.008179 C 184.68171 1646.302294 385.988166 1468.802023 724.024682 1351.015127 C 1009.585806 1251.492834 1396.30908 1191.892552 1806.499258 1191.892552 Z M 1806.499258 1191.892552 " transform="matrix(0.06908,0,0,0.06908,0,0)"/>
<path style="fill:none;stroke-width:144.7456;stroke-linecap:butt;stroke-linejoin:miter;stroke:rgb(0%,84.705882%,100%);stroke-opacity:1;stroke-miterlimit:10;" d="M 1271.001466 1501.259862 C 1473.891231 1149.369391 1713.027468 851.594166 1940.006152 654.132889 C 2213.466271 416.127588 2473.807542 322.881985 2614.100047 403.800394 C 2760.273415 488.11161 2813.37082 776.613166 2735.110108 1156.494282 C 2675.905653 1443.695263 2534.7084 1785.01149 2341.997051 2119.089733 C 2144.479227 2461.593442 1918.292197 2763.32694 1694.367038 2959.091814 C 1411.067784 3206.823158 1137.098744 3296.393222 993.696167 3213.721862 C 854.478051 3133.425467 801.324099 2870.369952 867.992726 2518.705667 C 924.42639 2221.32627 1066.01947 1856.599685 1271.001466 1501.259862 Z M 1271.001466 1501.259862 " transform="matrix(0.06908,0,0,0.06908,0,0)"/>
<path style="fill:none;stroke-width:144.7456;stroke-linecap:butt;stroke-linejoin:miter;stroke:rgb(0%,84.705882%,100%);stroke-opacity:1;stroke-miterlimit:10;" d="M 1271.510387 2119.824841 C 1067.998607 1768.160557 929.402504 1412.424906 871.611718 1117.081192 C 802.00266 761.288995 851.198339 489.185998 991.434297 408.097948 C 1137.494572 323.503999 1413.895122 421.612623 1703.92344 679.070009 C 1923.211765 873.817042 2148.26786 1166.616152 2341.48813 1500.41166 C 2539.571421 1842.632636 2688.119752 2189.207712 2745.797445 2480.875887 C 2818.912402 2850.126212 2759.707947 3132.181438 2616.361917 3215.135531 C 2477.256894 3295.601567 2222.909579 3210.385604 1951.485144 2976.904042 C 1722.301136 2779.612406 1477.001303 2474.825384 1271.510387 2119.824841 Z M 1271.510387 2119.824841 " transform="matrix(0.06908,0,0,0.06908,0,0)"/>
</g>
</svg>
