<?xml version="1.0" encoding="UTF-8"?>
<svg xmlns="http://www.w3.org/2000/svg" xmlns:xlink="http://www.w3.org/1999/xlink" width="400pt" height="400pt" viewBox="0 0 400 400" version="1.1">
<g id="surface1">
<path style=" stroke:none;fill-rule:nonzero;fill:rgb(13.333333%,13.333333%,13.333333%);fill-opacity:1;" d="M 0 0 L 399.957031 0 L 399.957031 399.957031 L 0 399.957031 Z M 0 0 "/>
<path style=" stroke:none;fill-rule:nonzero;fill:rgb(0%,84.705882%,100%);fill-opacity:1;" d="M 233.113281 199.734375 C 233.113281 218.207031 218.140625 233.179688 199.667969 233.179688 C 181.195312 233.179688 166.222656 218.207031 166.222656 199.734375 C 166.222656 181.261719 181.195312 166.289062 199.667969 166.289062 C 218.140625 166.289062 233.113281 181.261719 233.113281 199.734375 Z M 233.113281 199.734375 "/>
<path style="fill:none;stroke-width:144.7456;stroke-linecap:butt;stroke-linejoin:miter;stroke:rgb(0%,84.705882%,100%);stroke-opacity:1;stroke-miterlimit:10;" d="M 1806.495947 1191.9021 C 2212.714561 1191.9021 2590.094268 1250.216064 2874.595732 1348.112842 C 3217.411162 1466.08376 3428.189639 1644.983936 3428.189639 1806.990732 C 3428.189639 1975.783154 3204.794141 2165.88668 2836.709326 2287.815879 C 2558.392676 2379.987285 2192.110293 2428.193496 1806.495947 2428.193496 C 1411.091924 2428.193496 1036.786953 2382.991338 755.289541 2286.790967 C 399.185596 2165.10916 184.69623 1972.602393 184.69623 1806.990732 C 184.69623 1646.291582 386.003105 1468.805078 724.012051 1351.010869 C 1009.609111 1251.488369 1396.283711 1191.9021 1806.495947 1191.9021 Z M 1806.495947 1191.9021 " transform="matrix(0.110528,0,0,0.110528,0,0)"/>
<path style="fill:none;stroke-width:144.7456;stroke-linecap:butt;stroke-linejoin:miter;stroke:rgb(0%,84.705882%,100%);stroke-opacity:1;stroke-miterlimit:10;" d="M 1270.997041 1501.284189 C 1473.894297 1149.385918 1713.016895 851.595937 1940.017256 654.105977 C 2213.49208 416.114316 2473.784414 322.882656 2614.091348 403.815371 C 2760.300361 488.105557 2813.38374 776.600645 2735.10166 1156.489619 C 2675.90415 1443.712402 2534.713672 1785.008135 2341.994854 2119.094141 C 2144.504893 2461.591494 1918.317393 2763.304414 1694.391768 2959.097969 C 1411.091924 3206.808623 1137.086973 3296.400078 993.705303 3213.700273 C 854.493965 3133.403711 801.304561 2870.390059 867.994531 2518.703838 C 924.400039 2221.302617 1066.014619 1856.610615 1270.997041 1501.284189 Z M 1270.997041 1501.284189 " transform="matrix(0.110528,0,0,0.110528,0,0)"/>
<path style="fill:none;stroke-width:144.7456;stroke-linecap:butt;stroke-linejoin:miter;stroke:rgb(0%,84.705882%,100%);stroke-opacity:1;stroke-miterlimit:10;" d="M 1271.491826 2119.800977 C 1067.99376 1768.185439 929.383232 1412.39957 871.599395 1117.083516 C 802.011396 761.297646 851.207178 489.201152 991.408086 408.091729 C 1137.511074 323.483467 1413.883926 421.592295 1703.898711 679.092627 C 1923.194561 873.790586 2148.286465 1166.597373 2341.500068 1500.400645 C 2539.59084 1842.615264 2688.09707 2189.212266 2745.810225 2480.888115 C 2818.897061 2850.103867 2759.699551 3132.20209 2616.388564 3215.113945 C 2477.283252 3295.587217 2222.892998 3210.413486 1951.50334 2976.910234 C 1722.311787 2779.596982 1477.004375 2474.809326 1271.491826 2119.800977 Z M 1271.491826 2119.800977 " transform="matrix(0.110528,0,0,0.110528,0,0)"/>
</g>
</svg>
